<svg width="30" height="30" viewBox="0 0 31 30" fill="none" xmlns="http://www.w3.org/2000/svg">
<path d="M15.9223 9.99787C13.1679 9.99787 10.9201 12.2456 10.9201 15C10.9201 17.7544 13.1679 20.0021 15.9223 20.0021C18.6766 20.0021 20.9244 17.7544 20.9244 15C20.9244 12.2456 18.6766 9.99787 15.9223 9.99787ZM30.9249 15C30.9249 12.9286 30.9437 10.876 30.8273 8.80832C30.711 6.40669 30.1631 4.27525 28.407 2.51907C26.647 0.759128 24.5193 0.215011 22.1177 0.098682C20.0463 -0.0176466 17.9937 0.00111617 15.926 0.00111617C13.8546 0.00111617 11.802 -0.0176466 9.73434 0.098682C7.33272 0.215011 5.20128 0.762881 3.44509 2.51907C1.68515 4.27901 1.14104 6.40669 1.02471 8.80832C0.908379 10.8797 0.927142 12.9324 0.927142 15C0.927142 17.0676 0.908379 19.124 1.02471 21.1917C1.14104 23.5933 1.68891 25.7247 3.44509 27.4809C5.20503 29.2409 7.33272 29.785 9.73434 29.9013C11.8057 30.0176 13.8584 29.9989 15.926 29.9989C17.9974 29.9989 20.0501 30.0176 22.1177 29.9013C24.5193 29.785 26.6508 29.2371 28.407 27.4809C30.1669 25.721 30.711 23.5933 30.8273 21.1917C30.9474 19.124 30.9249 17.0714 30.9249 15ZM15.9223 22.6964C11.6631 22.6964 8.22582 19.2591 8.22582 15C8.22582 10.7409 11.6631 7.30355 15.9223 7.30355C20.1814 7.30355 23.6187 10.7409 23.6187 15C23.6187 19.2591 20.1814 22.6964 15.9223 22.6964ZM23.9339 8.7858C22.9395 8.7858 22.1365 7.98276 22.1365 6.98834C22.1365 5.99392 22.9395 5.19087 23.9339 5.19087C24.9284 5.19087 25.7314 5.99392 25.7314 6.98834C25.7317 7.22447 25.6854 7.45834 25.5952 7.67655C25.505 7.89476 25.3726 8.09303 25.2056 8.26C25.0386 8.42697 24.8404 8.55936 24.6221 8.64958C24.4039 8.73981 24.1701 8.7861 23.9339 8.7858Z" fill="white" fill-opacity="0.7"/>
</svg>
