<svg width="30" height="30" viewBox="0 0 38 30" fill="none" xmlns="http://www.w3.org/2000/svg">
<path d="M37.926 3.56363C36.568 4.14942 35.0902 4.57102 33.568 4.73522C35.1484 3.79633 36.3319 2.31303 36.8964 0.563627C35.4134 1.44583 33.7888 2.06444 32.0947 2.39203C31.3866 1.63505 30.5302 1.032 29.5788 0.620465C28.6275 0.208931 27.6016 -0.00227123 26.5651 1.84189e-05C22.3713 1.84189e-05 18.9985 3.39942 18.9985 7.57102C18.9985 8.15682 19.0695 8.74262 19.1849 9.30622C12.9053 8.97782 7.30474 5.97783 3.58137 1.38463C2.90294 2.54343 2.54741 3.86285 2.55179 5.20564C2.55179 7.83285 3.88759 10.1494 5.92457 11.5118C4.72414 11.4646 3.55183 11.1346 2.50297 10.5488V10.642C2.50297 14.321 5.10356 17.3698 8.56954 18.071C7.91876 18.2401 7.2493 18.3265 6.57693 18.3284C6.08433 18.3284 5.61835 18.2796 5.14794 18.213C6.10652 21.213 8.89794 23.392 12.2219 23.463C9.62131 25.5 6.36392 26.6982 2.82694 26.6982C2.19232 26.6982 1.60652 26.676 0.998535 26.605C4.35356 28.7574 8.33433 30 12.6213 30C26.5385 30 34.1538 18.4704 34.1538 8.46303C34.1538 8.13463 34.1538 7.80623 34.1316 7.47782C35.605 6.39942 36.8964 5.06362 37.926 3.56363Z" fill="white" fill-opacity="0.7"/>
</svg>
