<svg width="33" height="30" viewBox="0 0 44 30" fill="none" xmlns="http://www.w3.org/2000/svg">
<path d="M22.4169 0H22.6544C24.8486 0.00800783 35.9661 0.0880866 38.9637 0.894208C39.8699 1.14023 40.6957 1.61978 41.3585 2.28492C42.0213 2.95007 42.4979 3.77752 42.7407 4.68458C43.0103 5.69891 43.1998 7.04155 43.328 8.42691L43.3547 8.70451L43.4134 9.39852L43.4347 9.67613C43.6082 12.1158 43.6296 14.4007 43.6323 14.8999V15.1001C43.6296 15.6179 43.6056 18.0577 43.4134 20.5988L43.392 20.8791L43.368 21.1567C43.2345 22.6835 43.037 24.1997 42.7407 25.3154C42.4986 26.2228 42.0223 27.0507 41.3593 27.7159C40.6964 28.3812 39.8703 28.8605 38.9637 29.1058C35.8673 29.9386 24.0985 29.9973 22.4676 30H22.0885C21.2637 30 17.8524 29.984 14.2756 29.8612L13.8218 29.8452L13.5896 29.8345L13.1331 29.8158L12.6767 29.7971C9.71377 29.6663 6.89235 29.4555 5.59241 29.1031C4.68616 28.8581 3.86022 28.3792 3.19733 27.7144C2.53444 27.0496 2.05788 26.2224 1.81538 25.3154C1.51909 24.2023 1.32157 22.6835 1.1881 21.1567L1.16675 20.8764L1.14539 20.5988C1.01366 18.7901 0.94066 16.9776 0.926514 15.1642L0.926514 14.8358C0.931852 14.2619 0.953206 12.2787 1.09735 10.0899L1.11603 9.81493L1.12404 9.67613L1.14539 9.39852L1.20412 8.70451L1.23081 8.42691C1.35894 7.04155 1.54846 5.69624 1.81805 4.68458C2.06014 3.77715 2.53652 2.94931 3.19944 2.28405C3.86235 1.61879 4.68851 1.13949 5.59508 0.894208C6.89502 0.547202 9.71644 0.333659 12.6793 0.200196L13.1331 0.181511L13.5922 0.165496L13.8218 0.157488L14.2782 0.138803C16.8186 0.057055 19.36 0.0116724 21.9017 0.0026694H22.4169V0ZM18.0099 8.56838V21.429L29.1061 15.0013L18.0099 8.56838Z" fill="white" fill-opacity="0.7"/>
</svg>
