<svg width="50" height="61" viewBox="0 0 50 61" fill="none" xmlns="http://www.w3.org/2000/svg">
<path fill-rule="evenodd" clip-rule="evenodd" d="M33.6765 0.387695C43.4391 0.387695 49.0399 5.22005 49.0399 13.6385V55.4748C49.0399 57.2304 48.1362 58.8105 46.6165 59.6941C45.1027 60.5805 43.2779 60.5978 41.7468 59.7344L24.5932 50.0438L7.28138 59.7545C6.53307 60.1747 5.71281 60.3877 4.88967 60.3877C4.04063 60.3877 3.19158 60.1603 2.42025 59.7056C0.903483 58.822 -0.000244141 57.2419 -0.000244141 55.4891V13.1118C-0.000244141 5.02433 5.60344 0.387695 15.3746 0.387695H33.6765ZM33.6765 4.70486H15.3746C8.03832 4.70486 4.31692 7.53117 4.31692 13.1118V55.4891C4.31692 55.7597 4.47234 55.9065 4.60186 55.9813C4.73137 56.0619 4.93572 56.1195 5.17172 55.9871L23.5398 45.6834C24.196 45.3179 24.999 45.315 25.6581 45.6863L43.8679 55.9727C44.1068 56.1108 44.3112 56.0475 44.4407 55.9698C44.5702 55.8921 44.7227 55.7453 44.7227 55.4748L44.7217 13.3105C44.6999 10.8334 44.2206 4.70486 33.6765 4.70486ZM34.9395 19.7531C36.131 19.7531 37.098 20.7201 37.098 21.9117C37.098 23.1032 36.131 24.0702 34.9395 24.0702H13.8774C12.6859 24.0702 11.7189 23.1032 11.7189 21.9117C11.7189 20.7201 12.6859 19.7531 13.8774 19.7531H34.9395Z" fill="white"/>
</svg>
