<svg width="60" height="61" viewBox="0 0 60 61" fill="none" xmlns="http://www.w3.org/2000/svg">
<path d="M41.8152 33.8427C41.3094 36.0138 40.2416 37.9643 38.7764 39.527L50.6459 51.5785L54.9647 47.1936L41.8152 33.8427Z" fill="#52FF00"/>
<path d="M37.6388 1.605L31.7393 -8.33429e-07L26.7677 18.8386L22.2792 1.83098L16.3796 3.43599L21.2291 21.8114L9.15012 9.54752L4.83133 13.9325L18.0804 27.3846L1.58079 22.8958L5.66703e-07 28.8857L18.0279 33.7903C17.8215 32.8864 17.7123 31.9446 17.7123 30.9769C17.7123 24.1271 23.1813 18.5743 29.9277 18.5743C36.6741 18.5743 42.1431 24.1271 42.1431 30.9769C42.1431 31.9383 42.0353 32.8744 41.8315 33.7729L58.2155 38.2302L59.7962 32.2403L41.6966 27.3162L58.1974 22.8271L56.6165 16.8372L38.5177 21.761L50.5966 9.49717L46.2778 5.11222L33.2124 18.3777L37.6388 1.605Z" fill="#52FF00"/>
<path d="M38.6566 39.6531C37.1737 41.1909 35.2997 42.3385 33.1982 42.9298L37.5173 59.2958L43.4169 57.6907L38.6566 39.6531Z" fill="#52FF00"/>
<path d="M32.9779 42.9897C32.0029 43.2442 30.981 43.3794 29.9278 43.3794C28.7995 43.3794 27.7069 43.2241 26.6697 42.9333L22.3467 59.3142L28.2462 60.9191L32.9779 42.9897Z" fill="#52FF00"/>
<path d="M26.4611 42.8728C24.3917 42.2521 22.551 41.0899 21.0984 39.5477L9.19971 51.6287L13.5185 56.0137L26.4611 42.8728Z" fill="#52FF00"/>
<path d="M20.9991 39.4409C19.5714 37.889 18.5314 35.9646 18.0364 33.8269L1.59888 38.2989L3.17965 44.2887L20.9991 39.4409Z" fill="#52FF00"/>
</svg>
