<svg width="52" height="61" viewBox="0 0 52 61" fill="none" xmlns="http://www.w3.org/2000/svg">
<path fill-rule="evenodd" clip-rule="evenodd" d="M33.1469 0.387695C33.2769 0.387695 33.4043 0.398662 33.5283 0.419719L33.9364 0.422127C34.5525 0.422127 35.1415 0.672814 35.5704 1.1168L50.8714 17.0551C51.2731 17.4749 51.4999 18.0397 51.4999 18.6226V46.3794C51.5479 53.9574 45.6402 60.1159 38.0501 60.3877H13.4646C6.09433 60.2293 0.183345 54.2735 0.00110444 46.9782L0 13.9502C0.178199 6.45674 6.36383 0.422127 13.7999 0.422127L32.7654 0.419719C32.8895 0.398662 33.0169 0.387695 33.1469 0.387695ZM30.8798 4.95141L13.8089 4.95262C8.80425 4.95262 4.64828 9.0059 4.53049 14.0045V46.3794C4.42176 51.517 8.469 55.7455 13.5582 55.8572H37.9715C43.0125 55.676 47.0023 51.517 46.9693 46.3945L46.9691 21.4786L40.9031 21.4817C35.3729 21.4666 30.8816 16.9602 30.8816 11.4391L30.8798 4.95141ZM24.5867 22.0099C25.2119 22.0099 25.7782 22.2636 26.1882 22.6736L26.1914 22.6756L33.2771 29.7915C34.159 30.6795 34.156 32.1111 33.271 32.993C32.383 33.875 30.9484 33.875 30.0664 32.987L26.8507 29.7574L26.8519 42.521C26.8519 43.7714 25.8371 44.7862 24.5867 44.7862C23.3363 44.7862 22.3214 43.7714 22.3214 42.521L22.3202 29.7574L19.1087 32.987C18.6677 33.434 18.0848 33.6545 17.5049 33.6545C16.928 33.6545 16.3481 33.434 15.9072 32.993C15.0222 32.1111 15.0162 30.6795 15.9011 29.7915L22.9808 22.6756L23.0818 22.5824C23.1255 22.5436 23.1707 22.5064 23.2173 22.4709L22.9808 22.6756C23.065 22.5911 23.1557 22.5149 23.2515 22.4471C23.6245 22.1721 24.0868 22.0099 24.5867 22.0099ZM35.4103 7.4915L35.4121 11.4391C35.4121 14.4715 37.8767 16.9421 40.9091 16.9512L44.4864 16.9481L35.4103 7.4915Z" fill="white"/>
</svg>
