<svg width="65" height="61" viewBox="0 0 65 61" fill="none" xmlns="http://www.w3.org/2000/svg">
<path fill-rule="evenodd" clip-rule="evenodd" d="M45.8207 0.387695C56.1696 0.387695 64.5877 8.80578 64.5877 19.1578V41.6175C64.5877 51.9665 56.1696 60.3877 45.8207 60.3877H18.7701C8.42122 60.3877 0 51.9665 0 41.6175V19.1578C0 8.80578 8.42122 0.387695 18.7701 0.387695H45.8207ZM45.8207 5.0818H18.7701C11.0092 5.0818 4.6941 11.3969 4.6941 19.1578V41.6175C4.6941 49.3785 11.0092 55.6936 18.7701 55.6936H45.8207C53.5816 55.6936 59.8936 49.3785 59.8936 41.6175V40.7413L49.5732 40.7432C43.6367 40.7432 38.8049 35.9145 38.8018 29.9812C38.8018 24.0416 43.6335 19.2098 49.5732 19.2067L59.8936 19.2048V19.1578C59.8936 11.3969 53.5816 5.0818 45.8207 5.0818ZM59.8936 23.8989L49.5732 23.9008C46.2216 23.9039 43.4959 26.6296 43.4959 29.9781C43.4959 33.3234 46.2247 36.0491 49.5732 36.0491L59.8936 36.0472V23.8989ZM51.0052 27.437C52.3007 27.437 53.3522 28.4885 53.3522 29.784C53.3522 31.0796 52.3007 32.1311 51.0052 32.1311H50.0288C48.7332 32.1311 47.6817 31.0796 47.6817 29.784C47.6817 28.4885 48.7332 27.437 50.0288 27.437H51.0052ZM33.4376 14.5892C34.7332 14.5892 35.7847 15.6407 35.7847 16.9363C35.7847 18.2318 34.7332 19.2833 33.4376 19.2833H16.542C15.2464 19.2833 14.195 18.2318 14.195 16.9363C14.195 15.6407 15.2464 14.5892 16.542 14.5892H33.4376Z" fill="white"/>
</svg>
